<?xml version="1.0" encoding="UTF-8"?><svg xmlns="http://www.w3.org/2000/svg" viewBox="0 0 216.32 207.1"><g id="a"/><g id="b"><g id="c"><g><path d="M108.36,207.1c-1.24,0-1.87-.02-2.48-.05-.62-.02-1.2-.05-2.4-.05s-1.78,.02-2.4,.05c-.61,.02-1.24,.05-2.48,.05v-1.05h-1.05c0-5.76,.02-8.69,.05-11.52,.02-2.83,.05-5.75,.05-11.51s-.02-8.68-.05-11.51c-.02-2.83-.05-5.76-.05-11.52h2c0,5.75,.02,8.68,.05,11.51,.02,2.83,.05,5.76,.05,11.52s-.02,8.69-.05,11.52c-.02,2.67-.04,5.42-.05,10.55,.61,0,1.02-.02,1.45-.04,.61-.02,1.24-.05,2.48-.05s1.87,.02,2.48,.05c.43,.02,.84,.03,1.45,.04,0-4.06-.02-6.27-.05-8.41-.02-2.31-.05-4.7-.05-9.39s.02-7.08,.05-9.39c.02-2.13,.04-4.32,.05-8.33-.24,0-.5,0-.77,0v-2c2.06,0,3.11-.02,4.12-.05,1.02-.02,2.08-.05,4.17-.05s3.14,.02,4.17,.05c1.01,.02,2.06,.05,4.12,.05v2c-2.08,0-3.14-.02-4.17-.05-1.01-.02-2.06-.05-4.12-.05s-3.11,.02-4.12,.05c-.43,0-.88,.02-1.4,.03,0,4.03-.02,6.23-.05,8.36-.02,2.3-.05,4.69-.05,9.37s.02,7.07,.05,9.37c.02,2.31,.05,4.7,.05,9.39h-1.05v1.05Z"/><path d="M170.72,206.93c-1.76,0-2.66-.03-3.52-.06-.85-.03-1.73-.06-3.45-.06s-2.6,.03-3.45,.06c-.87,.03-1.76,.06-3.52,.06v-2c.61,0,1.11,0,1.54-.01,.8-1.91,1.27-2.95,1.72-3.96,.49-1.09,.99-2.22,1.93-4.46,.94-2.24,1.38-3.39,1.82-4.51,.44-1.12,.89-2.29,1.83-4.55l1.85,.77c-.94,2.24-1.38,3.39-1.81,4.5-.44,1.12-.89,2.29-1.83,4.55-.95,2.27-1.46,3.4-1.95,4.51-.38,.84-.76,1.7-1.35,3.08,.79-.03,1.67-.05,3.24-.05,1.76,0,2.66,.03,3.52,.06,.32,.01,.65,.02,1.03,.03,3.03-7.28,4.58-11.08,6.08-14.76,1.54-3.79,3.14-7.7,6.33-15.37,3.19-7.68,4.85-11.57,6.44-15.33,1.5-3.54,3.05-7.19,5.89-14.01-.63,.01-1.08,.03-1.55,.05-.75,.03-1.52,.06-3.05,.06s-2.3-.03-3.05-.06c-.2,0-.4-.02-.61-.02-1.52,4.17-2.3,6.4-3.06,8.55-.8,2.27-1.62,4.63-3.3,9.23-1.67,4.58-2.55,6.91-3.41,9.16-.85,2.25-1.74,4.58-3.42,9.2l-1.88-.68c.32-.88,.61-1.68,.88-2.41-.06-.1-.13-.25-.15-.43-.09-.22-.18-.42-.27-.63-.35-.8-.71-1.62-1.39-3.47-.16-.43-.31-.9-.49-1.45-.27-.83-.58-1.78-1.02-2.9h0c-1.23-3.17-1.85-4.68-2.51-6.27-.62-1.5-1.26-3.05-2.44-6.07-1.21-3.11-1.8-4.7-2.36-6.24-.56-1.53-1.15-3.11-2.35-6.21l1.86-.73c1.21,3.11,1.8,4.7,2.36,6.24,.56,1.53,1.15,3.11,2.35,6.2,1.17,3.01,1.81,4.55,2.42,6.04,.66,1.61,1.29,3.13,2.52,6.32l-.99,.38,.99-.38c.45,1.17,.78,2.18,1.05,2.99,.17,.53,.32,.99,.47,1.38,.42,1.15,.71,1.87,.96,2.45,.59-1.6,1.06-2.83,1.52-4.04,.85-2.24,1.73-4.56,3.4-9.13,1.68-4.59,2.5-6.94,3.29-9.21,.72-2.05,1.46-4.16,2.83-7.93-.08,0-.16,0-.24,0v-2c1.52,0,2.3,.03,3.05,.06,.76,.03,1.48,.06,2.96,.06s2.2-.03,2.96-.06c.75-.03,1.52-.06,3.05-.06v1.06l.98,.41c-3.19,7.68-4.85,11.57-6.44,15.33-1.6,3.76-3.25,7.65-6.44,15.32-3.19,7.67-4.78,11.58-6.32,15.36-1.45,3.56-2.95,7.23-5.77,14.04,.09,0,.18,0,.27,0v2Zm-.13-29.43l.33,.15,.02-.05-.28-.2s-.05,.07-.07,.11Z"/><path d="M104.41,50.73v-2c1.17,0,2.33-1.04,3.44-2.04,.84-.75,1.7-1.53,2.66-1.95,1.47-.64,3.08-.86,4.51-1.05,1.04-.14,2.35-.32,2.63-.63l1.48,1.34c-.77,.86-2.2,1.05-3.84,1.27-1.29,.18-2.76,.37-3.98,.9-.66,.29-1.37,.93-2.12,1.6-1.33,1.2-2.84,2.56-4.78,2.56Zm13.06-2.34l-.1-2c1.08-.06,1.6-.11,2.16-.16,.55-.05,1.12-.11,2.24-.17,1.12-.06,1.7-.06,2.25-.07,.38,0,.74,0,1.26-.03,0-5.01-.03-7.73-.05-10.37-.02-2.83-.05-5.76-.05-11.52s.02-8.69,.05-11.53c.02-2.67,.04-5.42,.05-10.55-.61,0-1.02,.02-1.45,.04-.61,.02-1.24,.05-2.48,.05s-1.87-.02-2.48-.05c-.43-.02-.84-.03-1.45-.04,0,3.63,.03,5.62,.05,7.55,.02,2.1,.05,4.27,.05,8.53,0,3.08,.07,5.01,.13,6.71,.11,2.98,.18,4.95-.23,10.41l-.95-.07,.76,.57c-1.03,1.37-2.79,2.7-4.71,3.56-1.74,.78-3.71,1.19-5.71,1.19v-2c1.72,0,3.41-.35,4.9-1.01,1.75-.78,3.04-1.87,3.74-2.7,.37-5.11,.3-7.02,.2-9.87-.06-1.63-.13-3.66-.13-6.78,0-4.26-.02-6.42-.05-8.51-.02-2.1-.05-4.27-.05-8.53h1.05V0c1.24,0,1.87,.02,2.48,.05,.62,.02,1.2,.05,2.4,.05s1.78-.02,2.4-.05c.61-.02,1.24-.05,2.48-.05V1.05h1.05c0,5.76-.02,8.69-.05,11.53-.02,2.83-.05,5.75-.05,11.51s.02,8.68,.05,11.51c.02,2.83,.05,5.76,.05,11.53h-1.04l.04,.82c-1.12,.06-1.69,.06-2.25,.07-.56,0-1.08,.01-2.16,.07-1.08,.06-1.6,.11-2.16,.16-.55,.05-1.12,.11-2.24,.17Zm-10.65-7.94c-3.52,0-6.17-.97-7.9-2.88-1.64-1.82-2.44-4.44-2.44-8l-.75,.03c-.17-4.82-.16-6.44-.13-9.11,.01-1.28,.03-2.87,.03-5.19,0-3.57,.02-5.39,.05-7.14,.02-1.59,.04-3.22,.05-6.16-1.05,0-1.6,.02-2.17,.05-.61,.02-1.24,.05-2.48,.05s-1.87-.02-2.48-.05c-.62-.02-1.2-.05-2.4-.05V0c1.24,0,1.87,.02,2.48,.05,.62,.02,1.2,.05,2.4,.05s1.78-.02,2.4-.05c.61-.02,1.24-.05,2.48-.05V1.05h1.78c0,3.57-.02,5.39-.05,7.14-.02,1.75-.05,3.56-.05,7.12,0,2.33-.02,3.93-.03,5.21-.03,2.64-.05,4.24,.13,9.01l-1.05,.04h1.8c0,3.05,.63,5.23,1.92,6.67,1.35,1.49,3.44,2.22,6.41,2.22v2Z"/><path d="M163.42,79.3c-7.37,0-12.88-5.82-16.52-9.68l-.24-.26c-3.94-4.16-8.84-9.34-8.84-16.6s4.82-12.33,8.69-16.5l.42-.46c4.67-5.03,9.78-9.95,16.49-9.95v2c-5.9,0-10.66,4.6-15.02,9.31l-.42,.46c-3.82,4.11-8.15,8.77-8.15,15.14s4.4,11.11,8.29,15.22l.24,.26c4.51,4.77,9.05,9.05,15.07,9.05,1.38,0,2.65-1.03,3.89-2.03,.94-.77,1.83-1.49,2.83-1.84,1.52-.53,3.13-.65,4.54-.75,1.11-.08,2.25-.16,2.81-.45v-.05s.07,0,.1-.01c.05-.03,.09-.06,.12-.1l.07,.07c.05,0,.11-.02,.16-.03,.39-.07,.92-.17,1.39,.22,.31,.26,.43,.62,.47,.93,.17-.02,.35-.03,.53-.02,1.58,.05,2.36,1.1,2.92,1.86,.52,.7,.79,1.03,1.39,1.05l-.07,2c-1.58-.05-2.36-1.1-2.92-1.86-.52-.7-.79-1.03-1.39-1.05-.59-.02-.89,.3-1.46,.95-.62,.72-1.45,1.71-3.05,1.65l.07-2c.3,.01,.53-.07,.75-.23h-1.51c0-.41,.15-.73,.38-.99-.2,.02-.41,.03-.61,.05-1.29,.09-2.76,.2-4.03,.64-.67,.23-1.43,.85-2.23,1.5-1.43,1.16-3.06,2.48-5.15,2.48Zm25.23-3.68h-2c0-7.69-.69-11.6-1.36-15.38-.69-3.87-1.4-7.86-1.4-15.73s.71-11.86,1.4-15.73c.67-3.78,1.36-7.69,1.36-15.38h2c0,7.87-.71,11.86-1.39,15.73-.67,3.78-1.36,7.69-1.36,15.38s.69,11.6,1.36,15.38c.69,3.87,1.39,7.87,1.39,15.73Zm-28.56-7.71c-3.09,0-5.89-.35-7.82-2.4-2.28-2.42-2.11-6.01-1.94-9.81,.05-.99,.09-2.02,.09-3.01h2c0,1.04-.05,2.09-.1,3.11-.16,3.36-.3,6.54,1.39,8.35,1.81,1.93,5.18,1.83,8.75,1.73,.83-.02,1.68-.05,2.53-.05v2c-.82,0-1.66,.02-2.47,.05-.83,.02-1.64,.05-2.44,.05Zm16.99-3.81l-1.96-.42c.5-2.34,1.06-3.69,1.55-4.87,.67-1.61,1.15-2.77,1.15-5.91s-.48-4.25-1.15-5.85c-.5-1.2-1.07-2.56-1.56-4.96l1.96-.4c.45,2.2,.97,3.47,1.44,4.58,.7,1.68,1.31,3.13,1.31,6.63s-.6,4.99-1.31,6.68c-.46,1.11-.98,2.36-1.44,4.52Zm-.92-31.67l-1.93-.53c.52-1.92,1.09-3.07,1.55-4,.68-1.37,1.12-2.28,1.12-4.94,0-2.12-.58-3.12-1.25-4.28-.71-1.23-1.51-2.62-1.51-5.28h1.47v-1.47c1.67,0,2.55,.99,3.19,1.72,.6,.68,.95,1.04,1.69,1.04s1.08-.36,1.69-1.04c.64-.72,1.52-1.72,3.19-1.72v2c-.73,0-1.08,.36-1.69,1.04-.64,.72-1.52,1.72-3.19,1.72s-2.55-.99-3.19-1.72c-.43-.49-.74-.81-1.14-.96,.1,1.72,.63,2.63,1.23,3.67,.71,1.23,1.51,2.62,1.51,5.28,0,3.12-.62,4.37-1.33,5.82-.44,.9-.94,1.91-1.42,3.65Z"/><path d="M10.78,136.84h-2c0-5.86,.62-8.84,1.23-11.72,.61-2.91,1.18-5.66,1.18-11.31s-.58-8.4-1.18-11.31c-.6-2.88-1.23-5.86-1.23-11.72h2c0,5.65,.58,8.4,1.18,11.31,.6,2.88,1.23,5.86,1.23,11.72s-.62,8.84-1.23,11.72c-.61,2.91-1.18,5.66-1.18,11.31Zm-2.72-51.33c-1.66,0-2.51-1.52-3.19-2.74-.28-.5-.57-1.02-.84-1.29-.25-.25-.76-.53-1.25-.8-1.24-.68-2.77-1.52-2.77-3.23s1.54-2.55,2.77-3.23c.49-.27,1-.55,1.25-.8,.27-.27,.56-.79,.84-1.29,.68-1.22,1.53-2.74,3.19-2.74v2c-.49,0-1,.91-1.45,1.71-.35,.62-.71,1.26-1.18,1.73-.46,.45-1.09,.8-1.7,1.14-.81,.45-1.74,.95-1.74,1.48,0,.4,.53,.78,1.14,1.14v-.16c1.25,0,1.88,.03,2.49,.07,.61,.03,1.19,.06,2.38,.06s1.77-.03,2.38-.06c.61-.03,1.25-.07,2.49-.07v.22c.65-.37,1.23-.78,1.23-1.2h2c0,1.71-1.54,2.55-2.77,3.23-.49,.27-1,.55-1.25,.8-.27,.27-.56,.79-.84,1.29-.68,1.22-1.53,2.74-3.19,2.74h0Zm-2.24-5c.29,.39,.55,.84,.79,1.29,.43,.76,.96,1.71,1.45,1.71h0c.49,0,1-.91,1.45-1.72,.25-.44,.5-.9,.8-1.29-.56,.03-1.18,.06-2.29,.06-1.05,0-1.66-.02-2.19-.05Z"/><path d="M112.42,132.95c-1.25,0-1.88-.03-2.49-.07-.61-.03-1.19-.06-2.38-.06s-1.77,.03-2.38,.06c-.61,.03-1.25,.07-2.49,.07v-.33h-.33c0-3.68,.03-5.55,.07-7.36,.03-1.8,.06-3.66,.06-7.32s-.03-5.52-.06-7.32c-.03-1.81-.07-3.68-.07-7.35,0-3.01-.44-5.02-1.4-6.32-1.07-1.47-2.91-2.18-5.62-2.18v-2c3.39,0,5.76,.98,7.23,3,1.22,1.66,1.78,4.05,1.78,7.5,0,3.66,.03,5.52,.07,7.32,.03,1.81,.07,3.68,.07,7.35s-.03,5.55-.07,7.36c-.03,1.5-.05,3.04-.06,5.62,.26-.01,.48-.02,.71-.03,.61-.03,1.25-.07,2.49-.07s1.88,.03,2.49,.07c.58,.03,1.12,.06,2.18,.06,0-2.67-.04-4.25-.06-5.79-.03-1.84-.07-3.75-.07-7.49s.03-5.65,.07-7.49c.03-1.83,.06-3.73,.06-7.46h2c0,3.75-.03,5.65-.07,7.49-.03,1.83-.06,3.73-.06,7.46s.03,5.63,.06,7.46c.03,1.84,.07,3.75,.07,7.49h-1.8v.33Zm-53.32-.16c-1.65,0-2.53-.94-3.17-1.62-.61-.65-.96-.99-1.71-.99s-1.1,.34-1.71,.99c-.64,.68-1.52,1.62-3.17,1.62v-2c.75,0,1.1-.34,1.71-.99,.64-.68,1.52-1.62,3.17-1.62s2.53,.94,3.17,1.62c.61,.65,.96,.99,1.71,.99v2Zm28.09-.17h-2c0-3.78-.03-5.7-.06-7.55-.03-1.86-.07-3.79-.07-7.59s.03-5.72,.07-7.59c.03-1.86,.06-3.78,.06-7.55,0-.39-.05-.8-.11-1.23-.04-.29-.07-.58-.1-.88-.02-.26-.03-.51-.04-.76-.02-.45-.04-.87-.11-1.26l1.96-.39c.11,.55,.13,1.07,.15,1.57,0,.23,.02,.46,.04,.69,.02,.25,.05,.51,.09,.78,.06,.47,.12,.96,.12,1.48,0,3.79-.03,5.72-.07,7.59-.03,1.86-.06,3.78-.06,7.55s.03,5.7,.06,7.55c.03,1.86,.07,3.79,.07,7.59Zm-25.79,0h-2c0-4.17-.61-6.2-1.26-8.35-.66-2.19-1.35-4.46-1.35-8.93,0-4.82,.6-7.05,1.23-9.41,.52-1.93,1.05-3.92,1.36-7.62l-.05-.05s.04-.06,.07-.1v-.07h.03c.13-.28,.27-.8,.39-1.23,.38-1.43,.86-3.2,2.43-3.97,1.27-.62,2.7-.03,3.96,.49,.75,.31,1.52,.63,2.08,.63,.83,0,1.69-.09,2.51-.17,2.21-.23,4.5-.46,5.74,1.27,.99,1.37,.55,3.15,.08,5.03-.27,1.08-.55,2.2-.55,3.23h-2c0-1.28,.32-2.57,.61-3.72,.35-1.42,.69-2.75,.24-3.37-.57-.79-2.12-.63-3.91-.45-.88,.09-1.78,.18-2.72,.18s-1.92-.39-2.84-.78c-.87-.36-1.86-.77-2.32-.54-.75,.37-1.09,1.61-1.38,2.7-.12,.46-.24,.89-.39,1.27-.32,3.77-.9,5.91-1.41,7.8-.63,2.32-1.17,4.33-1.17,8.89,0,4.17,.61,6.2,1.26,8.35,.66,2.19,1.35,4.46,1.35,8.93Zm-12.36,0h-2c0-5.87,.68-8.85,1.33-11.74,.66-2.91,1.28-5.65,1.28-11.3s-.62-8.39-1.28-11.3c-.65-2.88-1.33-5.87-1.33-11.74h1.03v-1.06c1.13,0,1.71,.03,2.26,.07,.55,.03,1.07,.06,2.15,.06s1.59-.03,2.15-.06c.56-.03,1.13-.07,2.26-.07v2c-1.07,0-1.59,.03-2.15,.06-.56,.03-1.13,.07-2.26,.07s-1.71-.03-2.26-.07c-.35-.02-.69-.04-1.17-.05,.07,5.02,.65,7.61,1.27,10.35,.65,2.88,1.33,5.87,1.33,11.74s-.68,8.85-1.33,11.74c-.66,2.91-1.28,5.65-1.28,11.3Zm35.22-.79c-1.25,0-1.88-.03-2.49-.07-.61-.03-1.19-.06-2.38-.06s-1.77,.03-2.38,.06c-.61,.03-1.25,.07-2.49,.07v-2c1.19,0,1.77-.03,2.38-.06,.61-.03,1.25-.07,2.49-.07s1.88,.03,2.49,.07c.61,.03,1.19,.06,2.38,.06v2Zm29.95-29.11h-2c0-4.96-1.24-8.96-3.7-11.89-2.59-3.1-6.45-4.73-11.16-4.73v-2c5.32,0,9.71,1.88,12.69,5.45,2.76,3.3,4.16,7.73,4.16,13.17Zm-56.15-10.67c-.63,0-.98-.27-1.17-.51-.45-.59-.21-1.27-.02-1.81,.11-.3,.22-.63,.22-.89,0-.63,.04-.96,.07-1.25,.03-.27,.06-.51,.06-1.02h2c0,.63-.04,.96-.07,1.25-.03,.25-.05,.46-.06,.87,1.27-1.06,2.85-2.05,4.53-2.81,2.62-1.19,5.08-1.77,7.54-1.77v2c-2.17,0-4.36,.52-6.71,1.59-2.31,1.06-4.4,2.55-5.57,4l-.73-.59,.07,.93c-.06,0-.11,0-.17,0Z"/><path d="M144.99,142.18c-7.34,0-12.66-4.6-17.48-9.32-3.78-3.7-9.49-9.28-9.49-17.37,0-7.55,5.08-12.71,9.16-16.86l.17-.17c4.59-4.67,10.07-9.65,16.89-9.65v2c-6.05,0-11.15,4.67-15.46,9.06l-.17,.17c-4.03,4.09-8.59,8.73-8.59,15.46s4.2,11.36,8.89,15.94c4.52,4.43,9.49,8.75,16.08,8.75h0c1.53,0,2.95-.97,4.33-1.91,1.08-.73,2.1-1.43,3.21-1.71,1.92-.48,3.85-.44,5.4-.4,1.21,.03,2.47,.06,2.88-.23l1.16,1.63c-.95,.67-2.33,.64-4.08,.6-1.5-.04-3.21-.08-4.86,.34-.76,.19-1.64,.79-2.57,1.42-1.55,1.06-3.31,2.25-5.45,2.25h0Zm7.48-9.61c-1.3,0-2.6-.47-3.87-.93-1.14-.41-2.21-.8-3.14-.8v-2c1.27,0,2.57,.47,3.82,.92,1.47,.53,2.86,1.03,3.95,.71,1.25-.37,2.21-1.77,3.13-3.12,.65-.94,1.31-1.92,2.12-2.63l.06-.05,.4-.3,.49,.13c.13,.04,.23,.08,.32,.15,.16-.29,.42-.45,.85-.45v2c.53,0,.87-.4,.92-.67-.03,.15-.07,.71-.09,1.09-.08,1.38-.14,2.29-1.16,2.29-.71,0-.95-.48-1.41-1.64-.28,.37-.57,.79-.85,1.21-1.07,1.57-2.29,3.35-4.22,3.92-.44,.13-.88,.18-1.32,.18Zm-13.86-1.17c-1.63,0-3.21-.27-4.55-1.17-2.8-1.89-3.22-5.43-3.51-8.94-.13,.07-.26,.15-.4,.23l-1.01-1.73c5.34-3.12,6.96-3.02,10.87-2.8,1.23,.07,2.62,.15,4.47,.15,4.05,0,6.1,.72,8.08,1.41,1.91,.67,3.72,1.3,7.43,1.3v2c-4.05,0-6.1-.72-8.08-1.41-1.91-.67-3.72-1.3-7.43-1.3-1.9,0-3.39-.08-4.58-.15-3.01-.17-4.39-.25-7.43,1.27,.01,.12,.02,.25,.03,.37,.27,3.35,.53,6.51,2.68,7.95,1.73,1.17,4.34,.85,6.85,.55,1.15-.14,2.33-.28,3.43-.28v2c-.98,0-2.05,.13-3.19,.27-1.18,.14-2.43,.3-3.66,.3Zm-4.73-17.48c-1.2,0-2.55-.37-4.35-1.52l.93-1.45c.04-.47,.07-.96,.1-1.47,.19-3.07,.41-6.55,2.99-8.56,2.11-1.65,5.07-1.39,7.93-1.14,1.07,.09,2.18,.19,3.23,.19v2c-1.14,0-2.29-.1-3.41-.2-2.59-.23-5.04-.44-6.53,.72-1.87,1.46-2.05,4.33-2.23,7.11-.04,.68-.09,1.37-.15,2.04,1.4,.51,2.35,.23,3.76-.18,1.25-.36,2.8-.82,5.07-.82,2.79,0,4.21-.02,5.58-.05,1.38-.02,2.81-.05,5.61-.05v2c-2.79,0-4.21,.02-5.58,.05-1.38,.02-2.81,.05-5.61,.05-1.98,0-3.32,.39-4.51,.74-.95,.28-1.84,.54-2.85,.54Zm27.42-17.08c-.94-.84-2.67-1.03-4.49-1.22-1.44-.15-2.93-.31-4.35-.8-1.14-.39-2.19-1.1-3.29-1.86-1.56-1.06-3.16-2.16-4.91-2.16v-2c2.36,0,4.31,1.33,6.03,2.51,.99,.68,1.93,1.32,2.81,1.62,1.21,.41,2.59,.56,3.92,.7,2.16,.23,4.2,.45,5.62,1.72l-1.34,1.49Z"/><path d="M155.79,173.43c-1.24-.04-1.87-.09-2.47-.13-.62-.05-1.2-.09-2.4-.13s-1.78-.04-2.4-.04c-.61,0-1.24,0-2.48-.04l.03-.88h-1.04c0-5.76,.02-8.69,.05-11.53,.02-2.83,.05-5.75,.05-11.51s-.02-8.68-.05-11.51c-.02-2.48-.04-5.04-.05-9.51h-.01v-2h2.01v.04c.08,0,.16,0,.24,.01,.56,.02,1.08,.05,2.16,.05s1.61-.02,2.16-.05c.55-.02,1.12-.05,2.25-.05v2c-1.08,0-1.61,.02-2.16,.05-.55,.02-1.12,.05-2.25,.05s-1.7-.02-2.25-.05h-.15c0,4.43,.03,6.98,.05,9.45,.02,2.83,.05,5.76,.05,11.53s-.02,8.69-.05,11.53c-.02,2.64-.04,5.37-.05,10.41,.63,.01,1.05,.01,1.48,0,.61,0,1.24,0,2.48,.04,1.24,.04,1.87,.09,2.47,.13,.62,.05,1.2,.09,2.4,.13l-.07,2Zm30.25-1.22h-2c0-3.7-.02-5.58-.05-7.39-.02-1.82-.05-3.71-.05-7.42s.02-5.6,.05-7.42c.02-1.82,.05-3.7,.05-7.39h2c0,3.71-.02,5.6-.05,7.42-.02,1.82-.05,3.7-.05,7.39s.02,5.58,.05,7.39c.02,1.82,.05,3.71,.05,7.42Zm0-29.63h-2c0-5.22-1.39-9.35-4.13-12.28-2.81-2.99-6.85-4.51-12.01-4.51v-2c5.65,0,10.31,1.78,13.47,5.14,3.1,3.3,4.67,7.89,4.67,13.64Zm-31.24-11.22c-.55-.06-.95-.28-1.19-.66-.37-.59-.13-1.21,.04-1.67,.1-.26,.2-.53,.2-.75,0-.58,.03-.87,.05-1.16,.02-.25,.04-.49,.04-.98h2c0,.58-.03,.87-.05,1.16-.02,.24-.04,.46-.04,.89,1.16-.87,2.74-1.84,4.64-2.67,2.66-1.16,5.08-1.72,7.41-1.72v2c-2.05,0-4.21,.51-6.61,1.56-2.67,1.16-4.78,2.7-5.69,3.7l-.71-.64-.1,.95Z"/><path d="M216.15,144.26c-2.96,0-4.47-.03-5.92-.06-1.45-.03-2.94-.06-5.88-.06s-4.44,.03-5.88,.06c-1.46,.03-2.96,.06-5.92,.06v-2c.1,0,.2,0,.3,0,0-4.17,.03-6.42,.06-8.61,.03-2.34,.06-4.77,.06-9.53s-.03-7.19-.06-9.53c-.03-2.17-.05-4.41-.06-8.5-.82-.01-1.35-.03-1.88-.05-.73-.03-1.43-.06-2.85-.06s-2.12,.03-2.85,.06c-.72,.03-1.47,.06-2.93,.06v-2c.18,0,.34,0,.5,0,.01-.45,.03-.77,.05-1.09,.03-.49,.06-.96,.06-1.91s-.03-1.42-.06-1.91c-.02-.32-.04-.64-.05-1.09-.16,0-.32,0-.5,0v-2c1.79,0,2.7,.03,3.58,.06,.86,.03,1.76,.06,3.52,.06s2.59-.03,3.43-.05c.01-.38,.03-.66,.05-.94,.03-.47,.06-.91,.06-1.81s-.03-1.35-.06-1.81c-.03-.48-.06-.97-.06-1.94h2c0,.91,.03,1.35,.06,1.81,.03,.48,.06,.97,.06,1.94s-.03,1.46-.06,1.94c-.01,.24-.03,.47-.04,.77,.46,0,1.01-.01,1.67-.01v2c-1.76,0-2.65,.03-3.52,.06-.88,.03-1.79,.06-3.58,.06s-2.7-.03-3.58-.06c-.32-.01-.65-.02-1.02-.03,.01,.38,.03,.66,.04,.95,.03,.5,.06,1.02,.06,2.03s-.03,1.53-.06,2.03c-.02,.29-.03,.56-.04,.93,.12,0,.24,0,.36-.01,.72-.03,1.47-.06,2.93-.06s2.21,.03,2.93,.06c.73,.03,1.43,.06,2.85,.06v.94h.94c0,4.77,.03,7.19,.06,9.53,.03,2.35,.06,4.78,.06,9.56s-.03,7.21-.06,9.56c-.03,2.18-.05,4.43-.06,8.58,1.53-.01,2.57-.03,3.58-.05,1.46-.03,2.96-.06,5.92-.06s4.47,.03,5.92,.06c1.01,.02,2.04,.04,3.58,.05-.01-.46-.03-.79-.05-1.13-.03-.54-.06-1.1-.06-2.19s.03-1.65,.06-2.19c.03-.54,.06-1.04,.06-2.08h2c0,1.1-.03,1.65-.06,2.19-.03,.54-.06,1.04-.06,2.08s.03,1.55,.06,2.08c.02,.36,.04,.72,.05,1.25,.1,0,.2,0,.31,0v2Zm.17-39.23h-2c0-.96-.03-1.42-.06-1.91-.03-.5-.06-1.02-.06-2.03s.03-1.53,.06-2.03c.02-.3,.03-.58,.04-.97-.83,0-1.36,.03-1.91,.05-.72,.03-1.47,.06-2.94,.06s-2.22-.03-2.94-.06c-.74-.03-1.43-.06-2.86-.06v-.94h-.94c0-1.49-.03-2.21-.06-2.98-.03-.75-.06-1.53-.06-3.05s.03-2.3,.06-3.05c0-.19,.01-.39,.02-.59-.59,.01-.99,.03-1.41,.05-.61,.03-1.24,.06-2.49,.06s-1.87-.03-2.49-.06c-.61-.03-1.2-.06-2.39-.06v-2c1.24,0,1.87,.03,2.49,.06,.61,.03,1.2,.06,2.39,.06s1.78-.03,2.39-.06c.43-.02,.88-.04,1.54-.05,0-.12,0-.25,0-.39h2c0,1.53-.03,2.3-.06,3.05-.03,.77-.06,1.49-.06,2.98s.03,2.21,.06,2.98c.02,.56,.04,1.12,.05,2,.82,.01,1.36,.03,1.89,.05,.74,.03,1.43,.06,2.86,.06s2.13-.03,2.86-.06c.72-.03,1.47-.06,2.94-.06v1.06h1.06c0,1.02-.03,1.53-.06,2.03-.03,.49-.06,.96-.06,1.92s.03,1.42,.06,1.91c.03,.5,.06,1.02,.06,2.03Z"/><g><path d="M42.11,71.43c-1.27,0-1.91-.03-2.54-.06-.63-.03-1.22-.06-2.43-.06s-1.81,.03-2.43,.06c-.62,.03-1.27,.06-2.54,.06v-2c1.22,0,1.81-.03,2.43-.06,.62-.03,1.27-.06,2.54-.06,1.11,0,1.75,.03,2.31,.05,0-3.15,.03-4.9,.06-6.6,.03-1.86,.06-3.79,.06-7.58s-.03-5.71-.06-7.58c-.03-1.87-.06-3.81-.06-7.61h2c0,3.79,.03,5.71,.06,7.58,.03,1.87,.06,3.8,.06,7.61s-.03,5.74-.06,7.61c-.03,1.7-.06,3.46-.06,6.64,.2,0,.42,0,.66,0v2Zm34.58-.23c-2.6-2.99-3.42-4.95-4.2-6.84-.76-1.83-1.47-3.55-3.86-6.3-2.39-2.74-4-3.69-5.7-4.69-1.77-1.04-3.6-2.12-6.2-5.11l1.51-1.31c2.39,2.74,4,3.69,5.7,4.69,1.77,1.04,3.6,2.12,6.2,5.11,2.6,2.99,3.42,4.95,4.2,6.84,.76,1.83,1.47,3.55,3.86,6.3l-1.51,1.31Zm-18.34-24.69l-.62-1.9c1.35-.44,2.72-.78,4.06-1.11,3.29-.82,6.4-1.6,8.19-3.58,2.46-2.73,2.41-6.81,2.36-10.76,0-.57-.01-1.15-.01-1.71h2c0,.56,0,1.12,.01,1.68,.06,4.33,.11,8.81-2.87,12.12-2.2,2.44-5.6,3.29-9.19,4.18-1.3,.32-2.64,.66-3.92,1.07Zm-7.45-5.27c-1.69-1.84-2.02-3.31-2.32-4.61-.28-1.21-.51-2.25-1.84-3.7-1.33-1.45-2.35-1.78-3.52-2.16-1.26-.41-2.7-.87-4.39-2.72l1.48-1.35c1.33,1.45,2.35,1.78,3.52,2.16,1.26,.41,2.7,.87,4.38,2.72,1.69,1.84,2.02,3.31,2.32,4.61,.28,1.21,.51,2.25,1.84,3.7l-1.48,1.35Zm1.57-1.78l-.8-1.83c1.95-.85,3.39-.9,4.55-.95,1.41-.05,2.42-.09,4.08-1.52,1.91-1.65,1.9-4.68,1.9-7.34v-.37h2v.37c0,2.94,.01,6.61-2.59,8.86-2.19,1.9-3.78,1.95-5.32,2.01-1.09,.04-2.22,.08-3.82,.78Zm24.39-12.02h-2c0-4.7-3.58-8.8-7.46-12.53-.23-.22-.46-.45-.7-.68-3.07-2.99-6.54-6.38-12.09-6.38v-2c6.36,0,10.31,3.85,13.48,6.95,.23,.23,.47,.45,.69,.67,4.19,4.04,8.07,8.52,8.07,13.97Zm-10.12,0h-2c0-2.1-1.83-3.56-3.61-4.98-.45-.36-.92-.73-1.34-1.1-.49-.43-.95-.93-1.43-1.45-1.43-1.54-2.91-3.14-5.13-3.14v-2c3.1,0,5.04,2.1,6.6,3.78,.45,.49,.88,.95,1.29,1.31,.39,.34,.81,.68,1.26,1.04,1.94,1.55,4.36,3.48,4.36,6.54Z"/><path d="M30.65,9.78l-.1-2c3-.16,4.52-.25,5.99-.34,1.48-.09,3.01-.18,6.01-.34,3.01-.16,4.53-.23,6.01-.29,1.47-.07,3-.13,6-.29l.1,2c-3.01,.16-4.53,.23-6.01,.29-1.47,.07-3,.13-6,.29-3,.16-4.52,.25-6,.34-1.48,.09-3,.18-6.01,.34Z"/><rect x="29.58" y="8.13" width="2" height="62.23"/></g><path d="M45.52,193.81v-2c6.76,0,12.13-2.13,13.95-4.24l1.51,1.31c-2.12,2.45-7.72,4.93-15.46,4.93Zm23.85-.4c-2.48,0-3.74-.27-4.96-.52-1.17-.25-2.28-.48-4.55-.48v-2c2.48,0,3.75,.27,4.97,.52,.88,.18,1.72,.36,3.05,.44,.01-8.04,.26-12.21,.5-16.25,.24-4.1,.5-8.34,.5-16.67h2c0,8.4-.26,12.67-.5,16.79-.25,4.1-.5,8.34-.5,16.67h-.5v1.5Zm-21.14-7.31c-6.39,0-10.52-3.62-10.52-9.22h2c0,3.49,2.24,7.22,8.52,7.22v2Zm0-1v-2c4.46,0,8.21-1.16,10.12-3.1l-.95-.16c.24-1.39,.46-2.41,.63-3.24,.47-2.17,.66-3.07,.3-6.56l1.99-.2c.39,3.81,.15,4.94-.34,7.18-.17,.8-.39,1.8-.62,3.15l-.67-.11,1.25,1.14c-2.23,2.44-6.61,3.9-11.73,3.9Zm-20.14-7.91h-2c0-11.84,11.47-17.13,22.84-17.13v2c-5.77,0-11,1.38-14.72,3.88-4,2.69-6.12,6.58-6.12,11.26Zm10.62-.3h-2c0-5.44,5.37-8.82,14.02-8.82v2c-5.81,0-12.02,1.79-12.02,6.82Zm19.54-13.25c-.2-.09-.43-.2-.69-.32-1.83-.85-4.89-2.26-8.63-2.26v-2c4.18,0,7.62,1.59,9.47,2.45l.06,.03-.49-.37c.09-.12,.38-.5,.42-.61,0-.02,0-.17-.01-.28-.01-.19-.03-.46-.03-.82h-1c0-7.37-5.23-8.92-9.62-8.92v-2c7.39,0,11.62,3.98,11.62,10.92h1c0,.3,.01,.51,.02,.7,.06,.92-.06,1.23-.81,2.22l-.57-.44-.74,1.7Zm11.62-5.18h-2c0-10.73-7.12-17.14-19.04-17.14v-2c12.98,0,21.04,7.33,21.04,19.14Zm-36.47-2.03h-2c0-3.61,.15-4.5,.52-6.67,.12-.73,.28-1.63,.46-2.84l1.98,.3c-.19,1.23-.34,2.15-.47,2.89-.36,2.1-.5,2.89-.5,6.33Zm-.2-10.89l-1.19-1.61c2.05-1.51,9.04-3.6,16.82-3.6v2c-7.51,0-14.07,2.06-15.64,3.21Z"/></g></g></g></svg>